<svg width="26" height="26" viewBox="0 0 26 26" fill="none" xmlns="http://www.w3.org/2000/svg">
<path d="M7.84317 2.16675H5.78484C3.41234 2.16675 2.1665 3.41258 2.1665 5.77425V7.83258C2.1665 10.1942 3.41234 11.4401 5.774 11.4401H7.83234C10.194 11.4401 11.4398 10.1942 11.4398 7.83258V5.77425C11.4507 3.41258 10.2048 2.16675 7.84317 2.16675Z" fill="white"/>
<path opacity="0.4" d="M20.2259 2.16675H18.1676C15.8059 2.16675 14.5601 3.41258 14.5601 5.77425V7.83258C14.5601 10.1942 15.8059 11.4401 18.1676 11.4401H20.2259C22.5876 11.4401 23.8334 10.1942 23.8334 7.83258V5.77425C23.8334 3.41258 22.5876 2.16675 20.2259 2.16675Z" fill="white"/>
<path d="M20.2259 14.5491H18.1676C15.8059 14.5491 14.5601 15.7949 14.5601 18.1566V20.2149C14.5601 22.5766 15.8059 23.8224 18.1676 23.8224H20.2259C22.5876 23.8224 23.8334 22.5766 23.8334 20.2149V18.1566C23.8334 15.7949 22.5876 14.5491 20.2259 14.5491Z" fill="white"/>
<path opacity="0.4" d="M7.84317 14.5491H5.78484C3.41234 14.5491 2.1665 15.7949 2.1665 18.1566V20.2149C2.1665 22.5874 3.41234 23.8332 5.774 23.8332H7.83234C10.194 23.8332 11.4398 22.5874 11.4398 20.2257V18.1674C11.4507 15.7949 10.2048 14.5491 7.84317 14.5491Z" fill="white"/>
</svg>
