<?xml version="1.0" encoding="utf-8"?>
<!-- Generator: Adobe Illustrator 24.3.0, SVG Export Plug-In . SVG Version: 6.00 Build 0)  -->
<svg version="1.1" id="Layer_1" xmlns="http://www.w3.org/2000/svg" xmlns:xlink="http://www.w3.org/1999/xlink" x="0px" y="0px"
	 viewBox="0 0 872 239" style="enable-background:new 0 0 872 239;" xml:space="preserve">
<style type="text/css">
	.st0{fill:url(#SVGID_1_);}
	.st1{fill:#1D1D1B;}
	.st2{fill:#FFFFFF;}
</style>
<g>
	<linearGradient id="SVGID_1_" gradientUnits="userSpaceOnUse" x1="713.2985" y1="98.1608" x2="866.8098" y2="98.1608">
		<stop  offset="0" style="stop-color:#F8B142"/>
		<stop  offset="1" style="stop-color:#FFD231"/>
	</linearGradient>
	<path class="st0" d="M790.1,8.6c-39,0-76.8,30.3-76.8,73.1c0,55.5,41.6,67.2,41.6,106h70.4c0-38.9,41.6-50.5,41.6-106
		C866.8,38.9,829.1,8.6,790.1,8.6L790.1,8.6z"/>
	<path class="st1" d="M32.8,182.9c-8-4.3-14.2-10.2-18.8-17.8c-4.6-7.6-6.8-16.2-6.8-25.8c0-9.6,2.3-18.2,6.8-25.8
		c4.6-7.6,10.8-13.5,18.8-17.8c8-4.3,16.9-6.4,26.9-6.4c8.4,0,15.9,1.5,22.7,4.4c6.8,2.9,12.4,7.2,17.1,12.7l-14.4,13.3
		c-6.5-7.5-14.6-11.3-24.3-11.3c-6,0-11.3,1.3-16,3.9c-4.7,2.6-8.4,6.3-11,11c-2.6,4.7-3.9,10-3.9,16c0,6,1.3,11.3,3.9,16
		c2.6,4.7,6.3,8.4,11,11c4.7,2.6,10,3.9,16,3.9c9.7,0,17.8-3.8,24.3-11.5l14.4,13.3c-4.6,5.6-10.3,9.9-17.1,12.8
		c-6.8,2.9-14.4,4.4-22.8,4.4C49.7,189.3,40.8,187.2,32.8,182.9z"/>
	<path class="st1" d="M162.8,91h22.4v78.4h48.5v18.2h-70.8V91z"/>
	<path class="st1" d="M369.4,169.7v18h-74.8V91h73v18h-50.8v21h44.9v17.4h-44.9v22.4H369.4z"/>
	<path class="st1" d="M527,91l-41.8,96.7h-22.1L421.4,91h24.2l29.4,69l29.8-69H527z"/>
	<path class="st1" d="M678.4,91l-41.8,96.7h-22.1L572.7,91h24.2l29.4,69l29.8-69H678.4z"/>
	<path class="st1" d="M799.7,153.4v34.2h-22.4v-34.5L739.9,91h23.7l25.8,42.9L815.3,91h22L799.7,153.4z"/>
	<rect x="754.8" y="191.9" class="st1" width="70.6" height="12.8"/>
	<path class="st1" d="M754.8,209.3c0,7.4,6.1,12.8,12.8,12.8h44.9c6.8,0,12.8-5.5,12.8-12.8H754.8z"/>
	<path class="st1" d="M777.3,226.6c0,7.1,5.7,12.8,12.8,12.8s12.8-5.7,12.8-12.8H777.3z"/>
	<path class="st2" d="M764.9,28C764.9,28,764.9,28,764.9,28c0.2,0,0.4,0,0.5,0c3.2,0,5.8,2.6,5.8,5.9c0,2.4-1.5,4.6-3.8,5.4
		c-14.2,5.4-24.9,18-27.7,33.3c-0.6,3.2-3.6,5.3-6.8,4.7c-3.2-0.6-5.3-3.6-4.7-6.8c3.5-19.4,16.9-35.3,35-42.1
		C763.8,28.2,764.3,28.1,764.9,28L764.9,28z"/>
</g>
</svg>
