<?xml version="1.0" encoding="utf-8"?>
<!-- Generator: Adobe Illustrator 24.3.0, SVG Export Plug-In . SVG Version: 6.00 Build 0)  -->
<svg version="1.1" id="Layer_1" xmlns="http://www.w3.org/2000/svg" xmlns:xlink="http://www.w3.org/1999/xlink" x="0px" y="0px"
	 viewBox="0 0 875 239" style="enable-background:new 0 0 875 239;" xml:space="preserve">
<style type="text/css">
	.st0{display:none;fill:#1D1D1B;}
	.st1{fill:url(#SVGID_1_);}
	.st2{fill:#FFFFFF;}
</style>
<rect x="-343" y="-400" class="st0" width="1558.1" height="1044.7"/>
<linearGradient id="SVGID_1_" gradientUnits="userSpaceOnUse" x1="712.3433" y1="97.4945" x2="865.8546" y2="97.4945">
	<stop  offset="0" style="stop-color:#F8B142"/>
	<stop  offset="1" style="stop-color:#FFD231"/>
</linearGradient>
<path class="st1" d="M789.1,7.9c-39,0-76.8,30.3-76.8,73.1c0,55.5,41.6,67.2,41.6,106h70.4c0-38.9,41.6-50.5,41.6-106
	C865.9,38.2,828.1,7.9,789.1,7.9L789.1,7.9z"/>
<path class="st2" d="M31.8,182.3c-8-4.3-14.2-10.2-18.8-17.8c-4.6-7.6-6.8-16.2-6.8-25.8c0-9.6,2.3-18.2,6.8-25.8
	c4.6-7.6,10.8-13.5,18.8-17.8c8-4.3,16.9-6.4,26.9-6.4c8.4,0,15.9,1.5,22.7,4.4c6.8,2.9,12.4,7.2,17.1,12.7l-14.4,13.3
	c-6.5-7.5-14.6-11.3-24.3-11.3c-6,0-11.3,1.3-16,3.9c-4.7,2.6-8.4,6.3-11,11c-2.6,4.7-3.9,10-3.9,16c0,6,1.3,11.3,3.9,16
	c2.6,4.7,6.3,8.4,11,11c4.7,2.6,10,3.9,16,3.9c9.7,0,17.8-3.8,24.3-11.5l14.4,13.3c-4.6,5.6-10.3,9.9-17.1,12.8
	c-6.8,2.9-14.4,4.4-22.8,4.4C48.7,188.7,39.8,186.5,31.8,182.3z"/>
<path class="st2" d="M161.8,90.4h22.4v78.4h48.5V187h-70.8V90.4z"/>
<path class="st2" d="M368.4,169.1v18h-74.8V90.4h73v18h-50.8v21h44.9v17.4h-44.9v22.4H368.4z"/>
<path class="st2" d="M526.1,90.4L484.3,187h-22.1l-41.7-96.7h24.2l29.4,69l29.8-69H526.1z"/>
<path class="st2" d="M677.4,90.4L635.6,187h-22.1l-41.7-96.7H596l29.4,69l29.8-69H677.4z"/>
<path class="st2" d="M798.8,152.8V187h-22.4v-34.5L739,90.4h23.7l25.8,42.9l25.8-42.9h22L798.8,152.8z"/>
<rect x="753.9" y="191.2" class="st2" width="70.6" height="12.8"/>
<path class="st2" d="M753.9,208.6c0,7.4,6.1,12.8,12.8,12.8h44.9c6.8,0,12.8-5.5,12.8-12.8H753.9z"/>
<path class="st2" d="M776.3,225.9c0,7.1,5.7,12.8,12.8,12.8S802,233,802,225.9H776.3z"/>
<path class="st2" d="M763.9,27.3C764,27.3,764,27.3,763.9,27.3c0.2,0,0.4,0,0.5,0c3.2,0,5.8,2.6,5.8,5.9c0,2.4-1.5,4.6-3.8,5.4
	c-14.2,5.4-24.9,18-27.7,33.3c-0.6,3.2-3.6,5.3-6.8,4.7c-3.2-0.6-5.3-3.6-4.7-6.8c3.5-19.4,16.9-35.3,35-42.1
	C762.8,27.6,763.4,27.4,763.9,27.3L763.9,27.3z"/>
</svg>
